<?xml version="1.0" standalone="no"?>
<!DOCTYPE svg PUBLIC "-//W3C//DTD SVG 20010904//EN"
 "http://www.w3.org/TR/2001/REC-SVG-20010904/DTD/svg10.dtd">
<svg version="1.0" xmlns="http://www.w3.org/2000/svg"
 width="659.000000pt" height="659.000000pt" viewBox="0 0 659.000000 659.000000"
 preserveAspectRatio="xMidYMid meet">
<metadata>
Created by potrace 1.11, written by Peter Selinger 2001-2013
</metadata>
<g transform="translate(0.000000,659.000000) scale(0.100000,-0.100000)"
fill="#000000" stroke="none">
<path d="M3250 6571 c-56 -18 -93 -45 -178 -129 -104 -101 -150 -168 -237
-345 -57 -114 -165 -413 -178 -492 -3 -16 -12 -61 -20 -100 -8 -38 -18 -92
-22 -118 -3 -27 -8 -58 -10 -69 -3 -11 -7 -53 -11 -92 -3 -39 -9 -87 -11 -106
-3 -19 -7 -748 -9 -1619 -3 -1102 -7 -1596 -15 -1625 -14 -54 -90 -128 -152
-149 -44 -15 -47 -15 -48 1 0 9 -1 421 -1 915 -1 865 -2 897 -19 881 -10 -9
-26 -37 -35 -63 -83 -226 -174 -431 -213 -475 -9 -10 -16 -21 -15 -25 3 -28
-188 -299 -424 -603 -422 -543 -496 -651 -558 -815 -23 -60 -60 -191 -69 -243
-15 -85 -25 -166 -30 -241 l-7 -87 629 0 c345 0 643 -1 661 -1 l32 -1 0 -115
c0 -63 -3 -115 -7 -115 -5 -1 -301 -1 -659 -1 l-651 -1 20 -56 c74 -208 259
-338 527 -368 25 -3 216 -7 425 -9 209 -1 383 -3 387 -4 3 0 5 -22 3 -48 -7
-116 63 -219 161 -241 30 -7 147 -10 299 -9 l250 2 47 28 c69 40 100 98 106
198 l5 78 70 -2 71 -2 2 -70 c3 -85 13 -112 59 -164 58 -64 83 -68 385 -67
l265 1 47 28 c81 47 105 103 108 258 0 14 41 16 403 15 459 -1 520 6 656 72
131 64 254 206 281 326 l8 35 -607 0 c-333 0 -624 0 -646 1 l-41 0 1 118 1
117 564 2 c311 1 606 2 657 2 69 1 91 4 88 14 -2 6 -6 46 -10 87 -11 148 -18
196 -40 295 -41 177 -115 343 -233 520 -61 91 -198 270 -245 320 -10 11 -72
85 -136 165 -316 390 -456 618 -598 970 -29 74 -58 145 -63 157 -5 13 -15 20
-22 18 -11 -4 -13 -181 -13 -920 0 -503 -1 -915 -2 -915 -1 0 -19 11 -40 25
-59 40 -123 105 -146 150 l-21 40 -2 1500 c-1 825 -4 1532 -8 1570 -3 39 -8
105 -11 147 -3 42 -7 85 -9 95 -2 10 -6 45 -10 78 -32 285 -140 649 -259 875
-82 156 -224 323 -315 373 -54 29 -122 41 -162 28z m271 -832 c150 -51 305
-336 333 -614 6 -63 -17 -105 -66 -124 -13 -4 -243 -8 -511 -7 l-489 1 -30 34
c-30 34 -31 36 -25 110 15 188 124 435 241 545 65 60 91 66 312 66 125 0 214
-4 235 -11z"/>
</g>
</svg>
